<mxfile host="65bd71144e">
    <diagram id="6DfizsE7x6d98jmfnVth" name="Page-1">
        <mxGraphModel dx="478" dy="519" grid="1" gridSize="10" guides="1" tooltips="1" connect="1" arrows="1" fold="1" page="1" pageScale="1" pageWidth="827" pageHeight="1169" math="0" shadow="0">
            <root>
                <mxCell id="0"/>
                <mxCell id="1" parent="0"/>
                <mxCell id="FeXRkH_HAiZ41DwpjUJh-1" value="Classname" style="swimlane;fontStyle=1;align=center;verticalAlign=top;childLayout=stackLayout;horizontal=1;startSize=26;horizontalStack=0;resizeParent=1;resizeParentMax=0;resizeLast=0;collapsible=1;marginBottom=0;" parent="1" vertex="1">
                    <mxGeometry x="20" y="30" width="210" height="140" as="geometry"/>
                </mxCell>
                <mxCell id="FeXRkH_HAiZ41DwpjUJh-2" value="- name: String&#10;- surName: String&#10;- functionJob: String&#10;- startYear: int" style="text;strokeColor=none;fillColor=none;align=left;verticalAlign=top;spacingLeft=4;spacingRight=4;overflow=hidden;rotatable=0;points=[[0,0.5],[1,0.5]];portConstraint=eastwest;" parent="FeXRkH_HAiZ41DwpjUJh-1" vertex="1">
                    <mxGeometry y="26" width="210" height="64" as="geometry"/>
                </mxCell>
                <mxCell id="FeXRkH_HAiZ41DwpjUJh-3" value="" style="line;strokeWidth=1;fillColor=none;align=left;verticalAlign=middle;spacingTop=-1;spacingLeft=3;spacingRight=3;rotatable=0;labelPosition=right;points=[];portConstraint=eastwest;" parent="FeXRkH_HAiZ41DwpjUJh-1" vertex="1">
                    <mxGeometry y="90" width="210" height="8" as="geometry"/>
                </mxCell>
                <mxCell id="FeXRkH_HAiZ41DwpjUJh-4" value="+ getInfo(): String&#10;+ getStartyear(): int&#10;" style="text;strokeColor=none;fillColor=none;align=left;verticalAlign=top;spacingLeft=4;spacingRight=4;overflow=hidden;rotatable=0;points=[[0,0.5],[1,0.5]];portConstraint=eastwest;" parent="FeXRkH_HAiZ41DwpjUJh-1" vertex="1">
                    <mxGeometry y="98" width="210" height="42" as="geometry"/>
                </mxCell>
            </root>
        </mxGraphModel>
    </diagram>
</mxfile>